<svg version="1.1" xmlns="http://www.w3.org/2000/svg" viewBox="0 0 520.0909090909091 578.7272727272726" width="520.0909090909091" height="578.7272727272726">
  <!-- svg-source:excalidraw -->
  
  <defs>
    <style>
      @font-face {
        font-family: "Virgil";
        src: url("https://excalidraw.com/Virgil.woff2");
      }
      @font-face {
        font-family: "Cascadia";
        src: url("https://excalidraw.com/Cascadia.woff2");
      }
    </style>
  </defs>
  <rect x="0" y="0" width="520.0909090909091" height="578.7272727272726" fill="#ffffff"></rect><g stroke-linecap="round" transform="translate(30.454545454545496 10) rotate(0 58 50.5)"><path d="M45.03 0.69 C53.8 -1.7, 64.67 -0.02, 73.97 2.67 C83.27 5.36, 94.22 10.76, 100.82 16.84 C107.41 22.93, 111.46 31.14, 113.53 39.16 C115.6 47.18, 115.95 57.05, 113.23 64.96 C110.51 72.86, 104.28 80.87, 97.22 86.61 C90.17 92.35, 80.34 97.32, 70.92 99.41 C61.5 101.51, 49.85 101.56, 40.71 99.18 C31.57 96.8, 22.63 91.35, 16.08 85.12 C9.53 78.9, 3.73 69.97, 1.42 61.81 C-0.89 53.65, -0.55 44.16, 2.22 36.15 C5 28.15, 9.97 19.78, 18.06 13.79 C26.15 7.8, 44.22 2.37, 50.75 0.23 C57.28 -1.92, 56.97 -0.04, 57.24 0.91 M60.01 0.55 C69.32 0.21, 80.89 4.35, 89.35 8.78 C97.81 13.2, 106.46 19.93, 110.79 27.1 C115.12 34.26, 116.06 43.35, 115.34 51.75 C114.63 60.14, 111.44 70.04, 106.52 77.47 C101.6 84.91, 94.39 92.68, 85.81 96.38 C77.22 100.08, 64.87 100.08, 55.02 99.68 C45.16 99.29, 34.69 98.17, 26.69 94.03 C18.69 89.89, 11.51 82.72, 7.02 74.85 C2.52 66.99, -0.38 55.56, -0.26 46.84 C-0.14 38.13, 2.27 29.44, 7.74 22.56 C13.2 15.68, 23.83 9.21, 32.54 5.57 C41.24 1.93, 55.38 1.65, 59.96 0.71 C64.54 -0.24, 60.14 -0.97, 60.04 -0.09" stroke="#000000" stroke-width="1" fill="none"></path></g><g transform="translate(35.454545454545496 48.5) rotate(0 53 12)"><text x="53" y="17" font-family="Virgil, Segoe UI Emoji" font-size="20px" fill="#000000" text-anchor="middle" style="white-space: pre;" direction="ltr">CAD</text></g><g stroke-linecap="round" transform="translate(399.0909090909091 188.72727272727278) rotate(0 55.5 49.54545454545453)"><path d="M79.67 4.47 C87.84 7.14, 95.08 13.77, 100.37 20.74 C105.66 27.71, 110.37 37.98, 111.42 46.3 C112.47 54.62, 110.55 63.22, 106.65 70.67 C102.75 78.12, 95.92 86.13, 88 90.98 C80.09 95.82, 68.46 99.19, 59.14 99.73 C49.83 100.27, 40.4 97.99, 32.12 94.24 C23.84 90.5, 14.79 83.86, 9.45 77.25 C4.1 70.64, 0.67 62.8, 0.05 54.58 C-0.57 46.37, 1.66 35.51, 5.71 27.95 C9.76 20.4, 16.9 13.79, 24.35 9.26 C31.8 4.72, 41.06 1.18, 50.43 0.74 C59.8 0.3, 74.95 5.45, 80.54 6.62 C86.14 7.78, 84.16 7.04, 83.99 7.74 M66.97 1.17 C75.97 2.1, 85.37 7.8, 92.43 13.21 C99.48 18.63, 106.31 26.26, 109.28 33.67 C112.25 41.07, 112.19 49.55, 110.25 57.67 C108.31 65.78, 103.6 75.85, 97.64 82.38 C91.67 88.91, 83.47 94.14, 74.46 96.85 C65.45 99.56, 52.99 100.47, 43.56 98.65 C34.13 96.83, 24.57 91.28, 17.87 85.9 C11.17 80.53, 6.31 74.26, 3.37 66.42 C0.43 58.57, -1.49 46.88, 0.23 38.85 C1.94 30.82, 7.23 24.03, 13.66 18.22 C20.08 12.42, 29.8 7.13, 38.77 4.03 C47.75 0.93, 62.75 0.16, 67.5 -0.36 C72.26 -0.89, 67.82 0.01, 67.29 0.89" stroke="#000000" stroke-width="1" fill="none"></path></g><g stroke-linecap="round" transform="translate(310.9090909090909 460.5454545454545) rotate(0 59.545454545454504 54.090909090909065)"><path d="M35.52 4.83 C43.24 0.98, 54.44 -0.62, 63.58 0.04 C72.72 0.71, 82.32 4.22, 90.33 8.82 C98.34 13.43, 106.84 20.38, 111.64 27.68 C116.44 34.97, 118.86 44.2, 119.15 52.59 C119.44 60.97, 117.22 70.41, 113.36 77.99 C109.5 85.57, 103.26 93.05, 95.99 98.07 C88.72 103.09, 78.85 106.86, 69.73 108.11 C60.61 109.35, 50.23 108.14, 41.26 105.53 C32.29 102.92, 22.43 98.44, 15.91 92.44 C9.38 86.43, 4.73 77.7, 2.12 69.5 C-0.49 61.3, -1.69 51.34, 0.24 43.22 C2.16 35.11, 7.22 27.34, 13.7 20.79 C20.18 14.24, 34.59 6.85, 39.13 3.92 C43.67 1, 40.76 2.34, 40.93 3.24 M37.99 2.87 C46.1 -0.72, 58.05 0.12, 67.16 1.05 C76.26 1.98, 85.2 3.72, 92.61 8.45 C100.02 13.17, 107.05 21.79, 111.63 29.41 C116.21 37.02, 119.79 45.57, 120.1 54.11 C120.41 62.66, 117.97 73.29, 113.49 80.65 C109.01 88.01, 101.09 93.92, 93.22 98.28 C85.35 102.63, 75.43 105.59, 66.26 106.79 C57.08 108, 46.76 108.19, 38.17 105.52 C29.57 102.85, 21.01 97.08, 14.69 90.78 C8.36 84.49, 2.23 76.11, 0.24 67.75 C-1.76 59.39, 0.28 49.01, 2.71 40.65 C5.13 32.28, 8.9 23.82, 14.76 17.56 C20.62 11.29, 33.64 5.31, 37.85 3.06 C42.06 0.8, 39.53 3.28, 40.01 4.04" stroke="#000000" stroke-width="1" fill="none"></path></g><g transform="translate(404.0909090909091 225.27272727272728) rotate(0 50.5 12)"><text x="50.5" y="17" font-family="Virgil, Segoe UI Emoji" font-size="20px" fill="#000000" text-anchor="middle" style="white-space: pre;" direction="ltr">USD</text></g><g transform="translate(315.9090909090909 501.6363636363636) rotate(0 54.5 12)"><text x="54.5" y="17" font-family="Virgil, Segoe UI Emoji" font-size="20px" fill="#000000" text-anchor="middle" style="white-space: pre;" direction="ltr">CNY</text></g><g stroke-linecap="round" transform="translate(10 333.27272727272725) rotate(0 56.5 50)"><path d="M34.24 3.48 C41.98 -0.4, 53.07 -0.95, 62.46 -0.01 C71.85 0.93, 83.05 4.03, 90.58 9.1 C98.11 14.18, 103.86 22.85, 107.61 30.42 C111.37 37.99, 113.96 46.19, 113.1 54.53 C112.23 62.87, 108.08 73.63, 102.41 80.46 C96.74 87.29, 87.82 92.42, 79.09 95.5 C70.37 98.58, 59.58 99.65, 50.07 98.95 C40.56 98.24, 29.48 96.03, 22.02 91.26 C14.56 86.49, 8.98 78.08, 5.31 70.35 C1.64 62.62, -0.88 53.13, 0.01 44.87 C0.89 36.62, 3.93 28.04, 10.61 20.83 C17.28 13.61, 34.01 4.72, 40.07 1.59 C46.13 -1.55, 46.75 1.18, 46.97 2.02 M71.8 2.06 C80.36 3.01, 88.38 7.61, 94.88 13.45 C101.39 19.3, 108.34 29.08, 110.85 37.12 C113.36 45.17, 112.06 53.88, 109.93 61.72 C107.81 69.56, 104.74 77.88, 98.09 84.17 C91.43 90.45, 79.51 96.93, 70.01 99.44 C60.51 101.96, 50.15 101.67, 41.08 99.26 C32.01 96.85, 22 90.76, 15.59 84.98 C9.18 79.21, 4.85 72.62, 2.61 64.61 C0.37 56.6, -0.11 45.39, 2.15 36.91 C4.42 28.44, 9.45 19.87, 16.17 13.79 C22.89 7.7, 33.53 2.27, 42.47 0.41 C51.41 -1.46, 64.89 2.32, 69.81 2.62 C74.72 2.91, 71.96 1.52, 71.94 2.17" stroke="#000000" stroke-width="1" fill="none"></path></g><g transform="translate(15 371.27272727272725) rotate(0 51.5 12)"><text x="51.5" y="17" font-family="Virgil, Segoe UI Emoji" font-size="20px" fill="#000000" text-anchor="middle" style="white-space: pre;" direction="ltr">HKD</text></g><g stroke-linecap="round"><g transform="translate(143.63636363636363 92.36363636363637) rotate(0 128.68987241021057 62.46558658714744)"><path d="M-0.71 1.14 C42.08 21.4, 213.06 102.27, 255.72 122.71 M1.11 0.69 C44.39 21.66, 215.35 104.02, 258.09 124.24" stroke="#c92a2a" stroke-width="1" fill="none"></path></g><g transform="translate(143.63636363636363 92.36363636363637) rotate(0 128.68987241021057 62.46558658714744)"><path d="M230.13 120.26 C234.65 120.27, 242.87 122.47, 259.29 122.89 M227.94 121.09 C238.72 122.53, 246.93 123.55, 258.9 123.98" stroke="#c92a2a" stroke-width="1" fill="none"></path></g><g transform="translate(143.63636363636363 92.36363636363637) rotate(0 128.68987241021057 62.46558658714744)"><path d="M238.98 101.75 C241.78 105.68, 248.1 111.86, 259.29 122.89 M236.79 102.58 C244.93 109.96, 250.33 116.85, 258.9 123.98" stroke="#c92a2a" stroke-width="1" fill="none"></path></g></g><g stroke-linecap="round"><g transform="translate(431.81818181818187 294.18181818181824) rotate(0 -20.26549974823297 81.68439677835735)"><path d="M-1.03 0.33 C-7.85 27.81, -33.89 136.82, -40.77 163.92 M0.63 -0.55 C-6.27 26.63, -33.83 134.54, -41.17 161.94" stroke="#000000" stroke-width="1" fill="none"></path></g><g transform="translate(431.81818181818187 294.18181818181824) rotate(0 -20.26549974823297 81.68439677835735)"><path d="M-43.44 133.83 C-42.87 140.61, -43.67 149.58, -40.79 162.52 M-43.17 132.64 C-43.5 139.3, -42.02 145.61, -40.36 161.17" stroke="#000000" stroke-width="1" fill="none"></path></g><g transform="translate(431.81818181818187 294.18181818181824) rotate(0 -20.26549974823297 81.68439677835735)"><path d="M-23.58 139 C-29.19 144, -36.21 151.34, -40.79 162.52 M-23.31 137.81 C-27.96 143.16, -30.79 148.34, -40.36 161.17" stroke="#000000" stroke-width="1" fill="none"></path></g></g><g stroke-linecap="round"><g transform="translate(78.18181818181824 127.81818181818181) rotate(0 -5.582044550421756 98.07033118877771)"><path d="M-1.08 0.73 C-2.88 33.53, -9.26 163.6, -11.13 196.08 M0.55 0.07 C-1.32 32.58, -9.4 161.46, -11.71 194.28" stroke="#000000" stroke-width="1" fill="none"></path></g><g transform="translate(78.18181818181824 127.81818181818181) rotate(0 -5.582044550421756 98.07033118877771)"><path d="M-18.88 166.62 C-16.95 172.58, -15.45 180.65, -11.09 195.45 M-20.03 164.73 C-17.06 173.74, -15.34 181.79, -11.31 193.33" stroke="#000000" stroke-width="1" fill="none"></path></g><g transform="translate(78.18181818181824 127.81818181818181) rotate(0 -5.582044550421756 98.07033118877771)"><path d="M1.59 167.97 C-2.05 173.37, -6.12 181.08, -11.09 195.45 M0.44 166.08 C-2.39 174.57, -6.47 182.24, -11.31 193.33" stroke="#000000" stroke-width="1" fill="none"></path></g></g><g stroke-linecap="round"><g transform="translate(307.27272727272725 483.27272727272725) rotate(0 -89.28181729156609 -36.20330104237388)"><path d="M-1.05 -0.03 C-30.91 -11.9, -148.54 -58.72, -178.21 -70.48 M0.6 -1.09 C-29.5 -13.39, -149.64 -61.04, -179.17 -72.38" stroke="#000000" stroke-width="1" fill="none"></path></g><g transform="translate(307.27272727272725 483.27272727272725) rotate(0 -89.28181729156609 -36.20330104237388)"><path d="M-149.23 -71.69 C-159.85 -73.6, -171.42 -74.22, -178.99 -73.06 M-148.99 -70.76 C-159.19 -72.15, -166.72 -71.71, -179.15 -71.88" stroke="#000000" stroke-width="1" fill="none"></path></g><g transform="translate(307.27272727272725 483.27272727272725) rotate(0 -89.28181729156609 -36.20330104237388)"><path d="M-156.71 -52.58 C-164.61 -61.69, -173.33 -69.56, -178.99 -73.06 M-156.47 -51.65 C-164.23 -58.93, -169.46 -64.35, -179.15 -71.88" stroke="#000000" stroke-width="1" fill="none"></path></g></g><g stroke-linecap="round"><g transform="translate(385.4545454545455 258.72727272727275) rotate(0 -126.65347929724788 44.609852881865066)"><path d="M0.2 -0.57 C-41.77 14.43, -210.7 74.93, -252.93 89.79 M-1.15 1.75 C-43.13 16.41, -211.41 73.38, -253.51 88.03" stroke="#c92a2a" stroke-width="1" fill="none"></path></g><g transform="translate(385.4545454545455 258.72727272727275) rotate(0 -126.65347929724788 44.609852881865066)"><path d="M-231.11 70.36 C-233.93 73.9, -240.85 75.88, -255.15 86.78 M-229.44 69.65 C-236.73 75.09, -245.27 80.52, -252.68 88" stroke="#c92a2a" stroke-width="1" fill="none"></path></g><g transform="translate(385.4545454545455 258.72727272727275) rotate(0 -126.65347929724788 44.609852881865066)"><path d="M-224.46 89.77 C-228.65 89.26, -236.96 87.16, -255.15 86.78 M-222.78 89.06 C-232.22 88.21, -242.91 87.39, -252.68 88" stroke="#c92a2a" stroke-width="1" fill="none"></path></g></g><g transform="translate(261.81818181818187 114.27272727272725) rotate(0 21.5 13.000000000000014)"><text x="0" y="18" font-family="Virgil, Segoe UI Emoji" font-size="20px" fill="#000000" text-anchor="start" style="white-space: pre;" direction="ltr">0.79</text></g><g transform="translate(428.18181818181813 360.6363636363636) rotate(0 22.5 13)"><text x="0" y="18" font-family="Virgil, Segoe UI Emoji" font-size="20px" fill="#000000" text-anchor="start" style="white-space: pre;" direction="ltr">6.46</text></g><g transform="translate(196.36363636363637 456.9999999999999) rotate(0 20 13)"><text x="0" y="18" font-family="Virgil, Segoe UI Emoji" font-size="20px" fill="#000000" text-anchor="start" style="white-space: pre;" direction="ltr">1.22</text></g><g transform="translate(229.09090909090912 269.72727272727275) rotate(0 21.5 13)"><text x="0" y="18" font-family="Virgil, Segoe UI Emoji" font-size="20px" fill="#000000" text-anchor="start" style="white-space: pre;" direction="ltr">0.57</text></g><g transform="translate(18.181818181818244 201.5454545454546) rotate(0 19 13)"><text x="0" y="18" font-family="Virgil, Segoe UI Emoji" font-size="20px" fill="#000000" text-anchor="start" style="white-space: pre;" direction="ltr">6.16</text></g></svg>